<svg height="16" viewBox="0 0 16 16" width="16" xmlns="http://www.w3.org/2000/svg"><g fill="#e0e0e0"><path d="m3 2c-.5304.0000801-1.0390625.2108475-1.4140625.5859375-.37509.37501-.5858575.8836225-.5859375 1.4140625v8c.0000803.5304.2108475 1.039063.5859375 1.414062.37501.375091.8836225.585858 1.4140625.585938h10c1.1046 0 2-.89543 2-2v-8c0-1.1046-.89543-2-2-2zm0 1h10c.55228.0000096.99999.44772 1 1v8c-.00001.55228-.44772.99999-1 1h-10c-.55228-.00001-.99999-.44772-1-1v-8c.0000096-.55228.44772-.99999 1-1z"/><g stroke-linecap="square"><path d="m4 5v7h4v-7zm1 1h2v5h-2z"/><path d="m9 6v4h3v-4zm1 1h1v2h-1z"/></g></g></svg>